<svg xmlns="http://www.w3.org/2000/svg" xmlns:xlink="http://www.w3.org/1999/xlink"><symbol id="icon-contacts-phone" viewBox="0 0 36 36">
<style type="text/css">
	.st0{fill:#010101;}
</style>
<path class="st0" d="M18,0C11.6,0,5.2,1.1,2.8,3.4C0.9,5.3,0.2,8.7,0,10.8c0,0,0,0.2,0,0.3c0,0.8,0.7,1.5,1.5,1.5
	c0.1,0,3.7-0.3,5.9-0.5c0.1,0,0.1,0,0.2,0c0.8,0,1.5-0.7,1.5-1.5l0-3C9,6.7,9.7,6,10.7,6h14.7C26.2,6,27,6.7,27,7.7l0,3
	c0,0.8,0.7,1.5,1.5,1.5c0.1,0,0.1,0,0.2,0c2.2,0.2,5.8,0.5,5.9,0.5c0.8,0,1.5-0.7,1.5-1.5c0-0.1,0-0.3,0-0.3
	c-0.2-2.1-0.9-5.5-2.8-7.4C30.8,1.1,24.4,0,18,0z M18,19.5c-1.7,0-3,1.3-3,3s1.3,3,3,3c1.7,0,3-1.3,3-3S19.7,19.5,18,19.5z
	 M15.7,12.7v-1.9c0-1-0.8-1.9-1.9-1.9S12,9.8,12,10.9v1.9L1.9,23.6c-0.7,0.7-1.1,1.6-1.1,2.7v3c0,1.7,1.3,3,3,3h0.8v1.9
	c0,1,0.8,1.9,1.9,1.9s1.9-0.8,1.9-1.9v-1.9h19.5v1.9c0,1,0.8,1.9,1.9,1.9c1,0,1.9-0.8,1.9-1.9v-1.9h0.8c1.7,0,3-1.3,3-3v-3
	c0-1.1-0.4-2-1.1-2.7L24,12.7v-1.9c0-1-0.8-1.9-1.9-1.9s-1.9,0.8-1.9,1.9v1.9H15.7z M18,16.5c3.3,0,6,2.7,6,6c0,3.3-2.7,6-6,6
	c-3.3,0-6-2.7-6-6C12,19.2,14.7,16.5,18,16.5z"/>
</symbol><symbol id="icon-topmenu-mail" viewBox="0 0 18 14">
<g>
	<g>
		<g>
			<path fill="#161c35" d="M14.9,1.8c1.2-1,0.9-1.8-0.7-1.8H3.7C2.2,0,1.9,0.8,3.1,1.8l3.7,3.1c1.2,1,3.2,1,4.4,0L14.9,1.8z"/>
		</g>
		<g>
			<path fill="#161c35" d="M11.9,7.1c-1.2,1-2.2,1.8-2.2,1.8c0,0,0,0,0,0C9.6,9,9.5,9,9.4,9c0,0-0.1,0-0.1,0C9.2,9.1,9.1,9.1,9,9.1
				c0,0,0,0,0,0c0,0,0,0,0,0l0,0c0,0,0,0,0,0c-0.1,0-0.2,0-0.3-0.1c0,0-0.1,0-0.1,0C8.5,9,8.4,9,8.3,8.9c0,0,0,0,0,0
				c0,0-1-0.8-2.2-1.8L2.2,3.8C1,2.8,0,3.3,0,4.8v6.3C0,12.7,1.3,14,2.8,14h12.3c1.6,0,2.8-1.3,2.8-2.8V4.8c0-1.6-1-2-2.2-1
				L11.9,7.1z"/>
		</g>
	</g>
</g>
</symbol><symbol id="icon-topmenu-phone" viewBox="0 0 18 18">
<g>
	<g>
		<g>
			<path fill="#161c35" d="M12.6,18c-0.3,0-0.5,0-0.8,0c-3.6-0.4-6.2-2.1-8.1-4.3C1.8,11.6,0.3,8.8,0,5c0-0.3,0-0.7,0-1
				c0.1-0.7,0.4-1.1,0.8-1.5C1.2,2,2,1.4,2.6,1.3c0.5,0,1.3,0.3,1.6,0.8c0.3,0.4,0.4,1.2,0.6,1.8c0.1,0.6,0.4,1.4,0.4,2
				C5,6.8,3.9,7.2,3.5,7.8c1.1,2.8,3,4.8,5.4,6.2c0.6-0.3,1.2-1.4,2-1.4c0.3,0,0.7,0.2,1,0.3c0.3,0.1,0.6,0.2,1,0.4
				c0.5,0.2,1.4,0.5,1.7,0.9c0.3,0.4,0.5,1.2,0.4,1.7C14.9,16.7,13.4,17.7,12.6,18z"/>
		</g>
	</g>
	<path fill="#161c35" d="M9.1,1.1c4.3,0,7.8,3.6,7.8,8H18c0-5-4-9.1-8.9-9.1L9.1,1.1z"/>
	<path fill="#161c35" d="M9.1,6.9V8c0.6,0,1,0.5,1,1.1h1.1C11.2,7.9,10.3,6.9,9.1,6.9z"/>
	<path fill="#161c35" d="M9.1,4.6c2.4,0,4.4,2,4.4,4.5h1.2c0-3.1-2.5-5.7-5.5-5.7V4.6L9.1,4.6z"/>
</g>
</symbol><symbol id="icon-triangle-arrow-right" viewBox="0 0 10 14">
<polygon points="0,14 0,0.1 10,7.1 "/>
</symbol><symbol id="icon-user" viewBox="0 0 20 20">
<g id="icons">
	<g id="user">
		<ellipse cx="10" cy="6" rx="5" ry="6"/>
		<path d="M19.8,17.1c-0.9-1.8-2.6-3.3-4.8-4.2c-0.6-0.2-1.3-0.2-1.8,0.1c-1,0.6-2,0.9-3.2,0.9S7.8,13.6,6.8,13
			c-0.5-0.2-1.2-0.3-1.8,0c-2.2,0.9-3.9,2.4-4.8,4.2C-0.5,18.5,0.6,20,2.1,20h15.8C19.4,20,20.5,18.5,19.8,17.1z"/>
	</g>
</g>
</symbol></svg>